<?xml version="1.0" encoding="UTF-8"?>
<svg xmlns="http://www.w3.org/2000/svg" class="plot-d6a7b5" fill="currentColor" font-family="system-ui, sans-serif" font-size="10" text-anchor="middle" width="1100" height="340" viewBox="0 0 1100 340" style="font-size: 13px;"><style>:where(.plot-d6a7b5) {
  --plot-background: transparent;
  display: block;
  height: auto;
  height: intrinsic;
  max-width: 100%;
}
:where(.plot-d6a7b5 text),
:where(.plot-d6a7b5 tspan) {
  white-space: pre;
}</style><g aria-label="y-grid" aria-hidden="true" stroke="currentColor" stroke-opacity="0.1"><line x1="70" x2="1080" y1="300" y2="300"/><line x1="70" x2="1080" y1="270.6509411614261" y2="270.6509411614261"/><line x1="70" x2="1080" y1="241.3018823228522" y2="241.3018823228522"/><line x1="70" x2="1080" y1="211.95282348427835" y2="211.95282348427835"/><line x1="70" x2="1080" y1="182.60376464570444" y2="182.60376464570444"/><line x1="70" x2="1080" y1="153.2547058071306" y2="153.2547058071306"/><line x1="70" x2="1080" y1="123.90564696855668" y2="123.90564696855668"/><line x1="70" x2="1080" y1="94.55658812998279" y2="94.55658812998279"/><line x1="70" x2="1080" y1="65.20752929140889" y2="65.20752929140889"/><line x1="70" x2="1080" y1="35.85847045283501" y2="35.85847045283501"/></g><g aria-label="y-axis tick" aria-hidden="true" fill="none" stroke="currentColor"><path transform="translate(70,300)" d="M0,0L-6,0"/><path transform="translate(70,270.6509411614261)" d="M0,0L-6,0"/><path transform="translate(70,241.3018823228522)" d="M0,0L-6,0"/><path transform="translate(70,211.95282348427835)" d="M0,0L-6,0"/><path transform="translate(70,182.60376464570444)" d="M0,0L-6,0"/><path transform="translate(70,153.2547058071306)" d="M0,0L-6,0"/><path transform="translate(70,123.90564696855668)" d="M0,0L-6,0"/><path transform="translate(70,94.55658812998279)" d="M0,0L-6,0"/><path transform="translate(70,65.20752929140889)" d="M0,0L-6,0"/><path transform="translate(70,35.85847045283501)" d="M0,0L-6,0"/></g><g aria-label="y-axis tick label" text-anchor="end" font-variant="tabular-nums" transform="translate(-9,0)"><text y="0.32em" transform="translate(70,300)">0k</text><text y="0.32em" transform="translate(70,270.6509411614261)">50k</text><text y="0.32em" transform="translate(70,241.3018823228522)">100k</text><text y="0.32em" transform="translate(70,211.95282348427835)">150k</text><text y="0.32em" transform="translate(70,182.60376464570444)">200k</text><text y="0.32em" transform="translate(70,153.2547058071306)">250k</text><text y="0.32em" transform="translate(70,123.90564696855668)">300k</text><text y="0.32em" transform="translate(70,94.55658812998279)">350k</text><text y="0.32em" transform="translate(70,65.20752929140889)">400k</text><text y="0.32em" transform="translate(70,35.85847045283501)">450k</text></g><g aria-label="y-axis label" text-anchor="start" transform="translate(-67,-17)"><text y="0.71em" transform="translate(70,20)">↑ накопленные просмотры</text></g><g aria-label="x-axis tick" aria-hidden="true" fill="none" stroke="currentColor"><path transform="translate(93.87706855791961,300)" d="M0,0L0,6"/><path transform="translate(137.8108747044917,300)" d="M0,0L0,6"/><path transform="translate(180.78959810874704,300)" d="M0,0L0,6"/><path transform="translate(224.24586288416074,300)" d="M0,0L0,6"/><path transform="translate(268.17966903073284,300)" d="M0,0L0,6"/><path transform="translate(312.11347517730496,300)" d="M0,0L0,6"/><path transform="translate(355.0921985815603,300)" d="M0,0L0,6"/><path transform="translate(398.548463356974,300)" d="M0,0L0,6"/><path transform="translate(442.4822695035461,300)" d="M0,0L0,6"/><path transform="translate(486.41607565011816,300)" d="M0,0L0,6"/><path transform="translate(529.3947990543735,300)" d="M0,0L0,6"/><path transform="translate(572.8510638297872,300)" d="M0,0L0,6"/><path transform="translate(616.7848699763593,300)" d="M0,0L0,6"/><path transform="translate(660.7186761229315,300)" d="M0,0L0,6"/><path transform="translate(704.1749408983452,300)" d="M0,0L0,6"/><path transform="translate(747.6312056737588,300)" d="M0,0L0,6"/><path transform="translate(791.565011820331,300)" d="M0,0L0,6"/><path transform="translate(835.4988179669031,300)" d="M0,0L0,6"/><path transform="translate(878.4775413711584,300)" d="M0,0L0,6"/><path transform="translate(921.9338061465721,300)" d="M0,0L0,6"/><path transform="translate(965.8676122931441,300)" d="M0,0L0,6"/><path transform="translate(1009.8014184397164,300)" d="M0,0L0,6"/><path transform="translate(1052.7801418439715,300)" d="M0,0L0,6"/></g><g aria-label="x-axis tick label" font-variant="tabular-nums" transform="translate(0,9)"><text transform="translate(93.87706855791961,300)"><tspan x="0" y="0.71em">Oct</tspan><tspan x="0" dy="1em">2020</tspan></text><text transform="translate(137.8108747044917,300)"><tspan x="0" y="0.71em">Jan</tspan><tspan x="0" dy="1em">2021</tspan></text><text transform="translate(180.78959810874704,300)"><tspan x="0" y="0.71em">Apr</tspan><tspan x="0" dy="1em">2021</tspan></text><text transform="translate(224.24586288416074,300)"><tspan x="0" y="0.71em">Jul</tspan><tspan x="0" dy="1em">2021</tspan></text><text transform="translate(268.17966903073284,300)"><tspan x="0" y="0.71em">Oct</tspan><tspan x="0" dy="1em">2021</tspan></text><text transform="translate(312.11347517730496,300)"><tspan x="0" y="0.71em">Jan</tspan><tspan x="0" dy="1em">2022</tspan></text><text transform="translate(355.0921985815603,300)"><tspan x="0" y="0.71em">Apr</tspan><tspan x="0" dy="1em">2022</tspan></text><text transform="translate(398.548463356974,300)"><tspan x="0" y="0.71em">Jul</tspan><tspan x="0" dy="1em">2022</tspan></text><text transform="translate(442.4822695035461,300)"><tspan x="0" y="0.71em">Oct</tspan><tspan x="0" dy="1em">2022</tspan></text><text transform="translate(486.41607565011816,300)"><tspan x="0" y="0.71em">Jan</tspan><tspan x="0" dy="1em">2023</tspan></text><text transform="translate(529.3947990543735,300)"><tspan x="0" y="0.71em">Apr</tspan><tspan x="0" dy="1em">2023</tspan></text><text transform="translate(572.8510638297872,300)"><tspan x="0" y="0.71em">Jul</tspan><tspan x="0" dy="1em">2023</tspan></text><text transform="translate(616.7848699763593,300)"><tspan x="0" y="0.71em">Oct</tspan><tspan x="0" dy="1em">2023</tspan></text><text transform="translate(660.7186761229315,300)"><tspan x="0" y="0.71em">Jan</tspan><tspan x="0" dy="1em">2024</tspan></text><text transform="translate(704.1749408983452,300)"><tspan x="0" y="0.71em">Apr</tspan><tspan x="0" dy="1em">2024</tspan></text><text transform="translate(747.6312056737588,300)"><tspan x="0" y="0.71em">Jul</tspan><tspan x="0" dy="1em">2024</tspan></text><text transform="translate(791.565011820331,300)"><tspan x="0" y="0.71em">Oct</tspan><tspan x="0" dy="1em">2024</tspan></text><text transform="translate(835.4988179669031,300)"><tspan x="0" y="0.71em">Jan</tspan><tspan x="0" dy="1em">2025</tspan></text><text transform="translate(878.4775413711584,300)"><tspan x="0" y="0.71em">Apr</tspan><tspan x="0" dy="1em">2025</tspan></text><text transform="translate(921.9338061465721,300)"><tspan x="0" y="0.71em">Jul</tspan><tspan x="0" dy="1em">2025</tspan></text><text transform="translate(965.8676122931441,300)"><tspan x="0" y="0.71em">Oct</tspan><tspan x="0" dy="1em">2025</tspan></text><text transform="translate(1009.8014184397164,300)"><tspan x="0" y="0.71em">Jan</tspan><tspan x="0" dy="1em">2026</tspan></text><text transform="translate(1052.7801418439715,300)"><tspan x="0" y="0.71em">Apr</tspan><tspan x="0" dy="1em">2026</tspan></text></g><g aria-label="area" fill="#2563eb" fill-opacity="0.18"><path d="M70,297.365L70,293.396L70,288.674L70,283.384L70,277.569L70.478,293.679L74.775,293.26L74.775,285.727L89.102,291.707L89.102,282.656L89.102,273.15L89.102,263.22L89.102,252.878L91.489,289.269L100.563,288.925L131.603,288.598L135.423,288.264L135.423,276.221L135.423,263.878L135.423,251.229L138.288,287.06L138.288,273.825L138.288,260.297L138.288,246.434L138.288,232.199L138.288,217.588L138.766,285.037L139.243,284.393L181.745,284.028L227.111,283.698L227.111,267.052L227.111,250.053L240.005,282.575L255.764,282.017L311.636,281.137L319.754,279.868L325.485,278.814L351.272,277.924L354.137,277.016L357.48,276.082L362.733,275.005L364.643,273.727L376.582,272.585L378.014,270.848L379.924,268.502L387.087,266.482L406.189,263.985L458.719,262.524L458.719,223.051L475.433,258.706L475.433,213.998L486.416,252.98L514.113,251.089L519.844,248.498L537.991,245.303L551.839,242.702L561.39,240.321L594.34,238.317L597.206,235.67L600.071,232.791L619.65,229.63L676.478,227.007L688.894,225.385L689.371,222.682L705.13,220.704L709.428,218.177L710.861,215.331L725.664,213.474L730.44,212.011L730.44,122.027L736.17,208.201L738.558,204.345L740.468,202.204L755.272,200.501L757.66,198.309L766.733,194.637L770.553,192.046L773.418,189.814L779.149,187.419L783.924,185.362L792.998,183.982L795.385,182.727L796.818,181.444L797.773,180.147L801.116,178.826L803.026,177.755L803.504,176.23L805.414,174.824L812.099,173.193L814.487,171.833L814.965,170.253L821.65,168.906L821.65,36.209L827.381,165.609L829.291,164.102L830.723,162.706L835.976,161.51L837.887,160.536L837.887,20L838.364,158.39L838.842,157.235L839.797,156.01L841.229,154.852L842.662,153.129L845.05,150.983L850.303,148.444L862.241,147.016L865.106,145.288L868.927,144.087L869.404,142.877L872.27,141.761L872.747,140.366L873.702,138.503L877.045,136.918L881.82,135.43L886.596,134.031L888.506,132.479L893.281,131.184L895.191,129.837L897.579,128.639L899.012,127.344L901.877,125.836L904.742,124.406L909.04,123L910.473,121.402L913.338,119.779L917.636,118.241L927.664,117.038L932.44,115.93L936.26,114.817L938.648,113.716L945.333,112.807L949.631,111.577L951.541,110.339L955.839,109.363L961.57,108.47L963.002,106.819L963.48,105.533L967.778,103.792L970.643,102.76L973.986,101.746L975.896,100.6L978.761,99.692L979.239,98.552L981.626,96.932L988.312,95.306L1003.593,94.001L1005.504,92.536L1012.189,91.616L1012.667,90.512L1015.532,89.207L1018.875,88.207L1026.993,87.442L1027.948,86.74L1028.903,85.939L1029.381,84.945L1030.336,83.867L1046.572,83.248L1047.05,82.603L1048.005,82.113L1048.96,81.665L1049.437,81.115L1050.392,80.557L1052.303,79.992L1053.258,79.186L1058.033,78.547L1063.764,77.87L1065.196,77.38L1065.674,76.888L1068.061,76.396L1068.539,75.873L1069.494,75.362L1069.972,74.967L1070.927,74.569L1071.882,74.163L1072.837,73.744L1074.747,73.334L1076.18,72.951L1077.135,72.481L1080,72.314L1080,300L1077.135,300L1076.18,300L1074.747,300L1072.837,300L1071.882,300L1070.927,300L1069.972,300L1069.494,300L1068.539,300L1068.061,300L1065.674,300L1065.196,300L1063.764,300L1058.033,300L1053.258,300L1052.303,300L1050.392,300L1049.437,300L1048.96,300L1048.005,300L1047.05,300L1046.572,300L1030.336,300L1029.381,300L1028.903,300L1027.948,300L1026.993,300L1018.875,300L1015.532,300L1012.667,300L1012.189,300L1005.504,300L1003.593,300L988.312,300L981.626,300L979.239,300L978.761,300L975.896,300L973.986,300L970.643,300L967.778,300L963.48,300L963.002,300L961.57,300L955.839,300L951.541,300L949.631,300L945.333,300L938.648,300L936.26,300L932.44,300L927.664,300L917.636,300L913.338,300L910.473,300L909.04,300L904.742,300L901.877,300L899.012,300L897.579,300L895.191,300L893.281,300L888.506,300L886.596,300L881.82,300L877.045,300L873.702,300L872.747,300L872.27,300L869.404,300L868.927,300L865.106,300L862.241,300L850.303,300L845.05,300L842.662,300L841.229,300L839.797,300L838.842,300L838.364,300L837.887,160.536L837.887,300L835.976,300L830.723,300L829.291,300L827.381,300L821.65,168.906L821.65,300L814.965,300L814.487,300L812.099,300L805.414,300L803.504,300L803.026,300L801.116,300L797.773,300L796.818,300L795.385,300L792.998,300L783.924,300L779.149,300L773.418,300L770.553,300L766.733,300L757.66,300L755.272,300L740.468,300L738.558,300L736.17,300L730.44,212.011L730.44,300L725.664,300L710.861,300L709.428,300L705.13,300L689.371,300L688.894,300L676.478,300L619.65,300L600.071,300L597.206,300L594.34,300L561.39,300L551.839,300L537.991,300L519.844,300L514.113,300L486.416,300L475.433,258.706L475.433,300L458.719,262.524L458.719,300L406.189,300L387.087,300L379.924,300L378.014,300L376.582,300L364.643,300L362.733,300L357.48,300L354.137,300L351.272,300L325.485,300L319.754,300L311.636,300L255.764,300L240.005,300L227.111,267.052L227.111,283.698L227.111,300L181.745,300L139.243,300L138.766,300L138.288,232.199L138.288,246.434L138.288,260.297L138.288,273.825L138.288,287.06L138.288,300L135.423,263.878L135.423,276.221L135.423,288.264L135.423,300L131.603,300L100.563,300L91.489,300L89.102,263.22L89.102,273.15L89.102,282.656L89.102,291.707L89.102,300L74.775,293.26L74.775,300L70.478,300L70,283.384L70,288.674L70,293.396L70,297.365L70,300Z"/></g><g aria-label="line" fill="none" stroke="#2563eb" stroke-width="2.5" stroke-linejoin="round" stroke-linecap="round"><path d="M70,297.365L70,296.031L70,295.278L70,294.71L70,294.184L70.478,293.679L74.775,293.26L74.775,292.467L89.102,291.707L89.102,290.949L89.102,290.494L89.102,290.07L89.102,289.658L91.489,289.269L100.563,288.925L131.603,288.598L135.423,288.264L135.423,287.957L135.423,287.657L135.423,287.351L138.288,287.06L138.288,286.765L138.288,286.472L138.288,286.137L138.288,285.765L138.288,285.389L138.766,285.037L139.243,284.393L181.745,284.028L227.111,283.698L227.111,283.354L227.111,283.001L240.005,282.575L255.764,282.017L311.636,281.137L319.754,279.868L325.485,278.814L351.272,277.924L354.137,277.016L357.48,276.082L362.733,275.005L364.643,273.727L376.582,272.585L378.014,270.848L379.924,268.502L387.087,266.482L406.189,263.985L458.719,262.524L458.719,260.528L475.433,258.706L475.433,255.292L486.416,252.98L514.113,251.089L519.844,248.498L537.991,245.303L551.839,242.702L561.39,240.321L594.34,238.317L597.206,235.67L600.071,232.791L619.65,229.63L676.478,227.007L688.894,225.385L689.371,222.682L705.13,220.704L709.428,218.177L710.861,215.331L725.664,213.474L730.44,212.011L730.44,210.016L736.17,208.201L738.558,204.345L740.468,202.204L755.272,200.501L757.66,198.309L766.733,194.637L770.553,192.046L773.418,189.814L779.149,187.419L783.924,185.362L792.998,183.982L795.385,182.727L796.818,181.444L797.773,180.147L801.116,178.826L803.026,177.755L803.504,176.23L805.414,174.824L812.099,173.193L814.487,171.833L814.965,170.253L821.65,168.906L821.65,167.304L827.381,165.609L829.291,164.102L830.723,162.706L835.976,161.51L837.887,160.536L837.887,159.464L838.364,158.39L838.842,157.235L839.797,156.01L841.229,154.852L842.662,153.129L845.05,150.983L850.303,148.444L862.241,147.016L865.106,145.288L868.927,144.087L869.404,142.877L872.27,141.761L872.747,140.366L873.702,138.503L877.045,136.918L881.82,135.43L886.596,134.031L888.506,132.479L893.281,131.184L895.191,129.837L897.579,128.639L899.012,127.344L901.877,125.836L904.742,124.406L909.04,123L910.473,121.402L913.338,119.779L917.636,118.241L927.664,117.038L932.44,115.93L936.26,114.817L938.648,113.716L945.333,112.807L949.631,111.577L951.541,110.339L955.839,109.363L961.57,108.47L963.002,106.819L963.48,105.533L967.778,103.792L970.643,102.76L973.986,101.746L975.896,100.6L978.761,99.692L979.239,98.552L981.626,96.932L988.312,95.306L1003.593,94.001L1005.504,92.536L1012.189,91.616L1012.667,90.512L1015.532,89.207L1018.875,88.207L1026.993,87.442L1027.948,86.74L1028.903,85.939L1029.381,84.945L1030.336,83.867L1046.572,83.248L1047.05,82.603L1048.005,82.113L1048.96,81.665L1049.437,81.115L1050.392,80.557L1052.303,79.992L1053.258,79.186L1058.033,78.547L1063.764,77.87L1065.196,77.38L1065.674,76.888L1068.061,76.396L1068.539,75.873L1069.494,75.362L1069.972,74.967L1070.927,74.569L1071.882,74.163L1072.837,73.744L1074.747,73.334L1076.18,72.951L1077.135,72.481L1080,72.314"/></g></svg>