<?xml version="1.0" encoding="UTF-8"?>
<svg xmlns="http://www.w3.org/2000/svg" class="plot-d6a7b5" fill="currentColor" font-family="system-ui, sans-serif" font-size="10" text-anchor="middle" width="1100" height="492" viewBox="0 0 1100 492" style="font-size: 13px;"><style>:where(.plot-d6a7b5) {
  --plot-background: transparent;
  display: block;
  height: auto;
  height: intrinsic;
  max-width: 100%;
}
:where(.plot-d6a7b5 text),
:where(.plot-d6a7b5 tspan) {
  white-space: pre;
}</style><g aria-label="y-axis tick" aria-hidden="true" fill="none" stroke="currentColor" transform="translate(0,16)"><path transform="translate(180,27)" d="M0,0L-6,0"/><path transform="translate(180,63)" d="M0,0L-6,0"/><path transform="translate(180,99)" d="M0,0L-6,0"/><path transform="translate(180,135)" d="M0,0L-6,0"/><path transform="translate(180,171)" d="M0,0L-6,0"/><path transform="translate(180,207)" d="M0,0L-6,0"/><path transform="translate(180,243)" d="M0,0L-6,0"/><path transform="translate(180,279)" d="M0,0L-6,0"/><path transform="translate(180,315)" d="M0,0L-6,0"/><path transform="translate(180,351)" d="M0,0L-6,0"/><path transform="translate(180,387)" d="M0,0L-6,0"/><path transform="translate(180,423)" d="M0,0L-6,0"/></g><g aria-label="y-axis tick label" text-anchor="end" transform="translate(-9,16)"><text y="0.32em" transform="translate(180,27)">театр</text><text y="0.32em" transform="translate(180,63)">боты</text><text y="0.32em" transform="translate(180,99)">контактная импровизация</text><text y="0.32em" transform="translate(180,135)">творчество</text><text y="0.32em" transform="translate(180,171)">танцы</text><text y="0.32em" transform="translate(180,207)">медитация</text><text y="0.32em" transform="translate(180,243)">продакт</text><text y="0.32em" transform="translate(180,279)">карьера</text><text y="0.32em" transform="translate(180,315)">мужские круги</text><text y="0.32em" transform="translate(180,351)">друзья</text><text y="0.32em" transform="translate(180,387)">проекты</text><text y="0.32em" transform="translate(180,423)">ии</text></g><g aria-label="x-grid" aria-hidden="true" stroke="currentColor" stroke-opacity="0.1"><line x1="180" x2="180" y1="20" y2="462"/><line x1="241.8401206636501" x2="241.8401206636501" y1="20" y2="462"/><line x1="303.6802413273001" x2="303.6802413273001" y1="20" y2="462"/><line x1="365.52036199095016" x2="365.52036199095016" y1="20" y2="462"/><line x1="427.36048265460033" x2="427.36048265460033" y1="20" y2="462"/><line x1="489.20060331825033" x2="489.20060331825033" y1="20" y2="462"/><line x1="551.0407239819003" x2="551.0407239819003" y1="20" y2="462"/><line x1="612.8808446455505" x2="612.8808446455505" y1="20" y2="462"/><line x1="674.7209653092007" x2="674.7209653092007" y1="20" y2="462"/><line x1="736.5610859728507" x2="736.5610859728507" y1="20" y2="462"/><line x1="798.4012066365007" x2="798.4012066365007" y1="20" y2="462"/><line x1="860.2413273001509" x2="860.2413273001509" y1="20" y2="462"/><line x1="922.0814479638008" x2="922.0814479638008" y1="20" y2="462"/><line x1="983.9215686274509" x2="983.9215686274509" y1="20" y2="462"/></g><g aria-label="x-axis tick" aria-hidden="true" fill="none" stroke="currentColor"><path transform="translate(180,462)" d="M0,0L0,6"/><path transform="translate(241.8401206636501,462)" d="M0,0L0,6"/><path transform="translate(303.6802413273001,462)" d="M0,0L0,6"/><path transform="translate(365.52036199095016,462)" d="M0,0L0,6"/><path transform="translate(427.36048265460033,462)" d="M0,0L0,6"/><path transform="translate(489.20060331825033,462)" d="M0,0L0,6"/><path transform="translate(551.0407239819003,462)" d="M0,0L0,6"/><path transform="translate(612.8808446455505,462)" d="M0,0L0,6"/><path transform="translate(674.7209653092007,462)" d="M0,0L0,6"/><path transform="translate(736.5610859728507,462)" d="M0,0L0,6"/><path transform="translate(798.4012066365007,462)" d="M0,0L0,6"/><path transform="translate(860.2413273001509,462)" d="M0,0L0,6"/><path transform="translate(922.0814479638008,462)" d="M0,0L0,6"/><path transform="translate(983.9215686274509,462)" d="M0,0L0,6"/></g><g aria-label="x-axis tick label" font-variant="tabular-nums" transform="translate(0,9)"><text y="0.71em" transform="translate(180,462)">0.0</text><text y="0.71em" transform="translate(241.8401206636501,462)">0.2</text><text y="0.71em" transform="translate(303.6802413273001,462)">0.4</text><text y="0.71em" transform="translate(365.52036199095016,462)">0.6</text><text y="0.71em" transform="translate(427.36048265460033,462)">0.8</text><text y="0.71em" transform="translate(489.20060331825033,462)">1.0</text><text y="0.71em" transform="translate(551.0407239819003,462)">1.2</text><text y="0.71em" transform="translate(612.8808446455505,462)">1.4</text><text y="0.71em" transform="translate(674.7209653092007,462)">1.6</text><text y="0.71em" transform="translate(736.5610859728507,462)">1.8</text><text y="0.71em" transform="translate(798.4012066365007,462)">2.0</text><text y="0.71em" transform="translate(860.2413273001509,462)">2.2</text><text y="0.71em" transform="translate(922.0814479638008,462)">2.4</text><text y="0.71em" transform="translate(983.9215686274509,462)">2.6</text></g><g aria-label="x-axis label" text-anchor="end" transform="translate(97,27)"><text transform="translate(1000,462)">средний ERR, % →</text></g><g aria-label="bar"><rect x="180" width="820" y="27" height="32" fill="#db2777"/><rect x="180" width="790.4291786644726" y="63" height="32" fill="#2563eb"/><rect x="180" width="774.8567119155355" y="99" height="32" fill="#db2777"/><rect x="180" width="774.4285880032487" y="135" height="32" fill="#db2777"/><rect x="180" width="767.9769984917044" y="171" height="32" fill="#db2777"/><rect x="180" width="693.6400201106082" y="207" height="32" fill="#ea580c"/><rect x="180" width="671.222976370035" y="243" height="32" fill="#2563eb"/><rect x="180" width="662.2742652154416" y="279" height="32" fill="#2563eb"/><rect x="180" width="656.7420814479639" y="315" height="32" fill="#ea580c"/><rect x="180" width="646.2292609351432" y="351" height="32" fill="#9ba1a3"/><rect x="180" width="626.9308784521767" y="387" height="32" fill="#9ba1a3"/><rect x="180" width="601.5357191827779" y="423" height="32" fill="#2563eb"/></g><g aria-label="text" text-anchor="start" font-size="12" transform="translate(6,16)"><text y="0.32em" transform="translate(1000,27)">2.7% (5)</text><text y="0.32em" transform="translate(970.4291786644726,63)">2.6% (11)</text><text y="0.32em" transform="translate(954.8567119155355,99)">2.5% (5)</text><text y="0.32em" transform="translate(954.4285880032487,135)">2.5% (13)</text><text y="0.32em" transform="translate(947.9769984917044,171)">2.5% (8)</text><text y="0.32em" transform="translate(873.6400201106082,207)">2.2% (3)</text><text y="0.32em" transform="translate(851.222976370035,243)">2.2% (36)</text><text y="0.32em" transform="translate(842.2742652154416,279)">2.1% (37)</text><text y="0.32em" transform="translate(836.7420814479639,315)">2.1% (5)</text><text y="0.32em" transform="translate(826.2292609351432,351)">2.1% (5)</text><text y="0.32em" transform="translate(806.9308784521767,387)">2.0% (29)</text><text y="0.32em" transform="translate(781.5357191827779,423)">1.9% (11)</text></g></svg>