<?xml version="1.0" encoding="UTF-8"?>
<svg xmlns="http://www.w3.org/2000/svg" class="plot-d6a7b5" fill="currentColor" font-family="system-ui, sans-serif" font-size="10" text-anchor="middle" width="1100" height="320" viewBox="0 0 1100 320" style="font-size: 13px;"><style>:where(.plot-d6a7b5) {
  --plot-background: transparent;
  display: block;
  height: auto;
  height: intrinsic;
  max-width: 100%;
}
:where(.plot-d6a7b5 text),
:where(.plot-d6a7b5 tspan) {
  white-space: pre;
}</style><g aria-label="y-grid" aria-hidden="true" stroke="currentColor" stroke-opacity="0.1"><line x1="50" x2="1080" y1="280" y2="280"/><line x1="50" x2="1080" y1="236.66666666666669" y2="236.66666666666669"/><line x1="50" x2="1080" y1="193.33333333333334" y2="193.33333333333334"/><line x1="50" x2="1080" y1="150" y2="150"/><line x1="50" x2="1080" y1="106.66666666666667" y2="106.66666666666667"/><line x1="50" x2="1080" y1="63.33333333333333" y2="63.33333333333333"/><line x1="50" x2="1080" y1="20" y2="20"/></g><g aria-label="y-axis tick" aria-hidden="true" fill="none" stroke="currentColor"><path transform="translate(50,280)" d="M0,0L-6,0"/><path transform="translate(50,236.66666666666669)" d="M0,0L-6,0"/><path transform="translate(50,193.33333333333334)" d="M0,0L-6,0"/><path transform="translate(50,150)" d="M0,0L-6,0"/><path transform="translate(50,106.66666666666667)" d="M0,0L-6,0"/><path transform="translate(50,63.33333333333333)" d="M0,0L-6,0"/><path transform="translate(50,20)" d="M0,0L-6,0"/></g><g aria-label="y-axis tick label" text-anchor="end" font-variant="tabular-nums" transform="translate(-9,0)"><text y="0.32em" transform="translate(50,280)">0</text><text y="0.32em" transform="translate(50,236.66666666666669)">2</text><text y="0.32em" transform="translate(50,193.33333333333334)">4</text><text y="0.32em" transform="translate(50,150)">6</text><text y="0.32em" transform="translate(50,106.66666666666667)">8</text><text y="0.32em" transform="translate(50,63.33333333333333)">10</text><text y="0.32em" transform="translate(50,20)">12</text></g><g aria-label="y-axis label" text-anchor="start" transform="translate(-47,-17)"><text y="0.71em" transform="translate(50,20)">↑ постов в месяц</text></g><g aria-label="x-axis tick" aria-hidden="true" fill="none" stroke="currentColor"><path transform="translate(79.93330157217723,280)" d="M0,0L0,6"/><path transform="translate(125.07860886136255,280)" d="M0,0L0,6"/><path transform="translate(169.24249642686993,280)" d="M0,0L0,6"/><path transform="translate(213.8970938542163,280)" d="M0,0L0,6"/><path transform="translate(259.04240114340166,280)" d="M0,0L0,6"/><path transform="translate(304.18770843258693,280)" d="M0,0L0,6"/><path transform="translate(348.3515959980943,280)" d="M0,0L0,6"/><path transform="translate(393.00619342544064,280)" d="M0,0L0,6"/><path transform="translate(438.151500714626,280)" d="M0,0L0,6"/><path transform="translate(483.29680800381135,280)" d="M0,0L0,6"/><path transform="translate(527.4606955693187,280)" d="M0,0L0,6"/><path transform="translate(572.1152929966652,280)" d="M0,0L0,6"/><path transform="translate(617.2606002858504,280)" d="M0,0L0,6"/><path transform="translate(662.4059075750357,280)" d="M0,0L0,6"/><path transform="translate(707.060505002382,280)" d="M0,0L0,6"/><path transform="translate(751.7151024297284,280)" d="M0,0L0,6"/><path transform="translate(796.8604097189138,280)" d="M0,0L0,6"/><path transform="translate(842.005717008099,280)" d="M0,0L0,6"/><path transform="translate(886.1696045736065,280)" d="M0,0L0,6"/><path transform="translate(930.8242020009528,280)" d="M0,0L0,6"/><path transform="translate(975.9695092901381,280)" d="M0,0L0,6"/><path transform="translate(1021.1148165793234,280)" d="M0,0L0,6"/><path transform="translate(1065.278704144831,280)" d="M0,0L0,6"/></g><g aria-label="x-axis tick label" font-variant="tabular-nums" transform="translate(0,9)"><text transform="translate(79.93330157217723,280)"><tspan x="0" y="0.71em">Oct</tspan><tspan x="0" dy="1em">2020</tspan></text><text transform="translate(125.07860886136255,280)"><tspan x="0" y="0.71em">Jan</tspan><tspan x="0" dy="1em">2021</tspan></text><text transform="translate(169.24249642686993,280)"><tspan x="0" y="0.71em">Apr</tspan><tspan x="0" dy="1em">2021</tspan></text><text transform="translate(213.8970938542163,280)"><tspan x="0" y="0.71em">Jul</tspan><tspan x="0" dy="1em">2021</tspan></text><text transform="translate(259.04240114340166,280)"><tspan x="0" y="0.71em">Oct</tspan><tspan x="0" dy="1em">2021</tspan></text><text transform="translate(304.18770843258693,280)"><tspan x="0" y="0.71em">Jan</tspan><tspan x="0" dy="1em">2022</tspan></text><text transform="translate(348.3515959980943,280)"><tspan x="0" y="0.71em">Apr</tspan><tspan x="0" dy="1em">2022</tspan></text><text transform="translate(393.00619342544064,280)"><tspan x="0" y="0.71em">Jul</tspan><tspan x="0" dy="1em">2022</tspan></text><text transform="translate(438.151500714626,280)"><tspan x="0" y="0.71em">Oct</tspan><tspan x="0" dy="1em">2022</tspan></text><text transform="translate(483.29680800381135,280)"><tspan x="0" y="0.71em">Jan</tspan><tspan x="0" dy="1em">2023</tspan></text><text transform="translate(527.4606955693187,280)"><tspan x="0" y="0.71em">Apr</tspan><tspan x="0" dy="1em">2023</tspan></text><text transform="translate(572.1152929966652,280)"><tspan x="0" y="0.71em">Jul</tspan><tspan x="0" dy="1em">2023</tspan></text><text transform="translate(617.2606002858504,280)"><tspan x="0" y="0.71em">Oct</tspan><tspan x="0" dy="1em">2023</tspan></text><text transform="translate(662.4059075750357,280)"><tspan x="0" y="0.71em">Jan</tspan><tspan x="0" dy="1em">2024</tspan></text><text transform="translate(707.060505002382,280)"><tspan x="0" y="0.71em">Apr</tspan><tspan x="0" dy="1em">2024</tspan></text><text transform="translate(751.7151024297284,280)"><tspan x="0" y="0.71em">Jul</tspan><tspan x="0" dy="1em">2024</tspan></text><text transform="translate(796.8604097189138,280)"><tspan x="0" y="0.71em">Oct</tspan><tspan x="0" dy="1em">2024</tspan></text><text transform="translate(842.005717008099,280)"><tspan x="0" y="0.71em">Jan</tspan><tspan x="0" dy="1em">2025</tspan></text><text transform="translate(886.1696045736065,280)"><tspan x="0" y="0.71em">Apr</tspan><tspan x="0" dy="1em">2025</tspan></text><text transform="translate(930.8242020009528,280)"><tspan x="0" y="0.71em">Jul</tspan><tspan x="0" dy="1em">2025</tspan></text><text transform="translate(975.9695092901381,280)"><tspan x="0" y="0.71em">Oct</tspan><tspan x="0" dy="1em">2025</tspan></text><text transform="translate(1021.1148165793234,280)"><tspan x="0" y="0.71em">Jan</tspan><tspan x="0" dy="1em">2026</tspan></text><text transform="translate(1065.278704144831,280)"><tspan x="0" y="0.71em">Apr</tspan><tspan x="0" dy="1em">2026</tspan></text></g><g aria-label="area" fill="#2563eb" fill-opacity="0.18"><path d="M50,106.667L65.212,150L79.933,258.333L109.867,171.667L125.079,85L169.242,258.333L199.176,258.333L213.897,193.333L229.109,258.333L244.321,258.333L259.042,258.333L274.254,258.333L288.976,236.667L304.188,171.667L319.4,236.667L333.14,215L348.352,193.333L363.073,215L378.285,258.333L393.006,236.667L453.364,236.667L468.085,236.667L483.297,258.333L498.509,258.333L512.249,258.333L527.461,258.333L542.182,258.333L557.394,258.333L587.327,215L617.261,258.333L662.406,258.333L677.618,236.667L691.848,258.333L707.061,215L721.782,215L736.994,215L751.715,171.667L766.927,171.667L782.139,236.667L796.86,106.667L812.072,215L826.794,171.667L842.006,85L857.218,236.667L870.958,128.333L886.17,215L900.891,150L916.103,193.333L930.824,215L946.036,215L961.248,171.667L975.97,150L991.182,236.667L1005.903,236.667L1021.115,193.333L1036.327,171.667L1050.067,128.333L1065.279,171.667L1080,20L1080,280L1065.279,280L1050.067,280L1036.327,280L1021.115,280L1005.903,280L991.182,280L975.97,280L961.248,280L946.036,280L930.824,280L916.103,280L900.891,280L886.17,280L870.958,280L857.218,280L842.006,280L826.794,280L812.072,280L796.86,280L782.139,280L766.927,280L751.715,280L736.994,280L721.782,280L707.061,280L691.848,280L677.618,280L662.406,280L617.261,280L587.327,280L557.394,280L542.182,280L527.461,280L512.249,280L498.509,280L483.297,280L468.085,280L453.364,280L393.006,280L378.285,280L363.073,280L348.352,280L333.14,280L319.4,280L304.188,280L288.976,280L274.254,280L259.042,280L244.321,280L229.109,280L213.897,280L199.176,280L169.242,280L125.079,280L109.867,280L79.933,280L65.212,280L50,280Z"/></g><g aria-label="line" fill="none" stroke="#2563eb" stroke-width="2" stroke-linejoin="round" stroke-linecap="round"><path d="M50,106.667L65.212,150L79.933,258.333L109.867,171.667L125.079,85L169.242,258.333L199.176,258.333L213.897,193.333L229.109,258.333L244.321,258.333L259.042,258.333L274.254,258.333L288.976,236.667L304.188,171.667L319.4,236.667L333.14,215L348.352,193.333L363.073,215L378.285,258.333L393.006,236.667L453.364,236.667L468.085,236.667L483.297,258.333L498.509,258.333L512.249,258.333L527.461,258.333L542.182,258.333L557.394,258.333L587.327,215L617.261,258.333L662.406,258.333L677.618,236.667L691.848,258.333L707.061,215L721.782,215L736.994,215L751.715,171.667L766.927,171.667L782.139,236.667L796.86,106.667L812.072,215L826.794,171.667L842.006,85L857.218,236.667L870.958,128.333L886.17,215L900.891,150L916.103,193.333L930.824,215L946.036,215L961.248,171.667L975.97,150L991.182,236.667L1005.903,236.667L1021.115,193.333L1036.327,171.667L1050.067,128.333L1065.279,171.667L1080,20"/></g><g aria-label="dot" fill="#2563eb"><circle cx="50" cy="106.66666666666667" r="2.5"/><circle cx="65.2120057170081" cy="150" r="2.5"/><circle cx="79.93330157217723" cy="258.3333333333333" r="2.5"/><circle cx="109.86660314435446" cy="171.66666666666666" r="2.5"/><circle cx="125.07860886136255" cy="85" r="2.5"/><circle cx="169.24249642686993" cy="258.3333333333333" r="2.5"/><circle cx="199.17579799904715" cy="258.3333333333333" r="2.5"/><circle cx="213.8970938542163" cy="193.33333333333334" r="2.5"/><circle cx="229.1090995712244" cy="258.3333333333333" r="2.5"/><circle cx="244.3211052882325" cy="258.3333333333333" r="2.5"/><circle cx="259.04240114340166" cy="258.3333333333333" r="2.5"/><circle cx="274.25440686040974" cy="258.3333333333333" r="2.5"/><circle cx="288.97570271557885" cy="236.66666666666669" r="2.5"/><circle cx="304.18770843258693" cy="171.66666666666666" r="2.5"/><circle cx="319.399714149595" cy="236.66666666666669" r="2.5"/><circle cx="333.13959028108627" cy="215" r="2.5"/><circle cx="348.3515959980943" cy="193.33333333333334" r="2.5"/><circle cx="363.07289185326346" cy="215" r="2.5"/><circle cx="378.28489757027154" cy="258.3333333333333" r="2.5"/><circle cx="393.00619342544064" cy="236.66666666666669" r="2.5"/><circle cx="453.3635064316341" cy="236.66666666666669" r="2.5"/><circle cx="468.08480228680327" cy="236.66666666666669" r="2.5"/><circle cx="483.29680800381135" cy="258.3333333333333" r="2.5"/><circle cx="498.50881372081943" cy="258.3333333333333" r="2.5"/><circle cx="512.2486898523106" cy="258.3333333333333" r="2.5"/><circle cx="527.4606955693187" cy="258.3333333333333" r="2.5"/><circle cx="542.1819914244879" cy="258.3333333333333" r="2.5"/><circle cx="557.3939971414959" cy="258.3333333333333" r="2.5"/><circle cx="587.3272987136731" cy="215" r="2.5"/><circle cx="617.2606002858504" cy="258.3333333333333" r="2.5"/><circle cx="662.4059075750357" cy="258.3333333333333" r="2.5"/><circle cx="677.6179132920439" cy="236.66666666666669" r="2.5"/><circle cx="691.848499285374" cy="258.3333333333333" r="2.5"/><circle cx="707.060505002382" cy="215" r="2.5"/><circle cx="721.7818008575512" cy="215" r="2.5"/><circle cx="736.9938065745592" cy="215" r="2.5"/><circle cx="751.7151024297284" cy="171.66666666666666" r="2.5"/><circle cx="766.9271081467366" cy="171.66666666666666" r="2.5"/><circle cx="782.1391138637446" cy="236.66666666666669" r="2.5"/><circle cx="796.8604097189138" cy="106.66666666666667" r="2.5"/><circle cx="812.0724154359218" cy="215" r="2.5"/><circle cx="826.793711291091" cy="171.66666666666666" r="2.5"/><circle cx="842.005717008099" cy="85" r="2.5"/><circle cx="857.2177227251073" cy="236.66666666666669" r="2.5"/><circle cx="870.9575988565983" cy="128.33333333333331" r="2.5"/><circle cx="886.1696045736065" cy="215" r="2.5"/><circle cx="900.8909004287756" cy="150" r="2.5"/><circle cx="916.1029061457838" cy="193.33333333333334" r="2.5"/><circle cx="930.8242020009528" cy="215" r="2.5"/><circle cx="946.0362077179609" cy="215" r="2.5"/><circle cx="961.248213434969" cy="171.66666666666666" r="2.5"/><circle cx="975.9695092901381" cy="150" r="2.5"/><circle cx="991.1815150071462" cy="236.66666666666669" r="2.5"/><circle cx="1005.9028108623154" cy="236.66666666666669" r="2.5"/><circle cx="1021.1148165793234" cy="193.33333333333334" r="2.5"/><circle cx="1036.3268222963316" cy="171.66666666666666" r="2.5"/><circle cx="1050.0666984278228" cy="128.33333333333331" r="2.5"/><circle cx="1065.278704144831" cy="171.66666666666666" r="2.5"/><circle cx="1080" cy="20" r="2.5"/></g></svg>