<?xml version="1.0" encoding="UTF-8"?>
<svg xmlns="http://www.w3.org/2000/svg" class="plot-d6a7b5" fill="currentColor" font-family="system-ui, sans-serif" font-size="10" text-anchor="middle" width="1100" height="360" viewBox="0 0 1100 360" style="font-size: 13px;"><style>:where(.plot-d6a7b5) {
  --plot-background: transparent;
  display: block;
  height: auto;
  height: intrinsic;
  max-width: 100%;
}
:where(.plot-d6a7b5 text),
:where(.plot-d6a7b5 tspan) {
  white-space: pre;
}</style><g aria-label="y-axis tick" aria-hidden="true" fill="none" stroke="currentColor" transform="translate(0,17)"><path transform="translate(60,25)" d="M0,0L-6,0"/><path transform="translate(60,63)" d="M0,0L-6,0"/><path transform="translate(60,101)" d="M0,0L-6,0"/><path transform="translate(60,139)" d="M0,0L-6,0"/><path transform="translate(60,177)" d="M0,0L-6,0"/><path transform="translate(60,215)" d="M0,0L-6,0"/><path transform="translate(60,253)" d="M0,0L-6,0"/><path transform="translate(60,291)" d="M0,0L-6,0"/></g><g aria-label="y-axis tick label" text-anchor="end" transform="translate(-9,17)"><text y="0.32em" transform="translate(60,25)">🐳</text><text y="0.32em" transform="translate(60,63)">🔥</text><text y="0.32em" transform="translate(60,101)">❤</text><text y="0.32em" transform="translate(60,139)">👍</text><text y="0.32em" transform="translate(60,177)">😁</text><text y="0.32em" transform="translate(60,215)">😢</text><text y="0.32em" transform="translate(60,253)">🤡</text><text y="0.32em" transform="translate(60,291)">?</text></g><g aria-label="x-axis tick" aria-hidden="true" fill="none" stroke="currentColor"><path transform="translate(60,330)" d="M0,0L0,6"/><path transform="translate(166.5482796892342,330)" d="M0,0L0,6"/><path transform="translate(273.0965593784684,330)" d="M0,0L0,6"/><path transform="translate(379.6448390677026,330)" d="M0,0L0,6"/><path transform="translate(486.1931187569367,330)" d="M0,0L0,6"/><path transform="translate(592.7413984461709,330)" d="M0,0L0,6"/><path transform="translate(699.2896781354052,330)" d="M0,0L0,6"/><path transform="translate(805.8379578246393,330)" d="M0,0L0,6"/><path transform="translate(912.3862375138734,330)" d="M0,0L0,6"/><path transform="translate(1018.9345172031076,330)" d="M0,0L0,6"/></g><g aria-label="x-axis tick label" font-variant="tabular-nums" transform="translate(0,9)"><text y="0.71em" transform="translate(60,330)">0</text><text y="0.71em" transform="translate(166.5482796892342,330)">100</text><text y="0.71em" transform="translate(273.0965593784684,330)">200</text><text y="0.71em" transform="translate(379.6448390677026,330)">300</text><text y="0.71em" transform="translate(486.1931187569367,330)">400</text><text y="0.71em" transform="translate(592.7413984461709,330)">500</text><text y="0.71em" transform="translate(699.2896781354052,330)">600</text><text y="0.71em" transform="translate(805.8379578246393,330)">700</text><text y="0.71em" transform="translate(912.3862375138734,330)">800</text><text y="0.71em" transform="translate(1018.9345172031076,330)">900</text></g><g aria-label="x-axis label" text-anchor="end" transform="translate(77,27)"><text transform="translate(1020,330)">количество реакций →</text></g><g aria-label="bar" fill="#db2777"><rect x="60" width="960" y="25" height="34"/><rect x="60" width="425.1276359600444" y="63" height="34"/><rect x="60" width="336.69256381798004" y="101" height="34"/><rect x="60" width="264.2397336293008" y="139" height="34"/><rect x="60" width="43.68479467258601" y="177" height="34"/><rect x="60" width="34.095449500554935" y="215" height="34"/><rect x="60" width="31.964483906770255" y="253" height="34"/><rect x="60" width="24.50610432852386" y="291" height="34"/></g><g aria-label="text" text-anchor="start" font-size="12" transform="translate(8,17)"><text y="0.32em" transform="translate(1020,25)">901</text><text y="0.32em" transform="translate(485.1276359600444,63)">399</text><text y="0.32em" transform="translate(396.69256381798004,101)">316</text><text y="0.32em" transform="translate(324.2397336293008,139)">248</text><text y="0.32em" transform="translate(103.68479467258601,177)">41</text><text y="0.32em" transform="translate(94.09544950055493,215)">32</text><text y="0.32em" transform="translate(91.96448390677025,253)">30</text><text y="0.32em" transform="translate(84.50610432852386,291)">23</text></g></svg>