<?xml version="1.0" encoding="UTF-8"?>
<svg xmlns="http://www.w3.org/2000/svg" class="plot-d6a7b5" fill="currentColor" font-family="system-ui, sans-serif" font-size="10" text-anchor="middle" width="1100" height="460" viewBox="0 0 1100 460" style="font-size: 13px;"><style>:where(.plot-d6a7b5) {
  --plot-background: transparent;
  display: block;
  height: auto;
  height: intrinsic;
  max-width: 100%;
}
:where(.plot-d6a7b5 text),
:where(.plot-d6a7b5 tspan) {
  white-space: pre;
}</style><g aria-label="y-axis tick" aria-hidden="true" fill="none" stroke="currentColor" transform="translate(0,18)"><path transform="translate(480,27)" d="M0,0L-6,0"/><path transform="translate(480,67)" d="M0,0L-6,0"/><path transform="translate(480,107)" d="M0,0L-6,0"/><path transform="translate(480,147)" d="M0,0L-6,0"/><path transform="translate(480,187)" d="M0,0L-6,0"/><path transform="translate(480,227)" d="M0,0L-6,0"/><path transform="translate(480,267)" d="M0,0L-6,0"/><path transform="translate(480,307)" d="M0,0L-6,0"/><path transform="translate(480,347)" d="M0,0L-6,0"/><path transform="translate(480,387)" d="M0,0L-6,0"/></g><g aria-label="y-axis tick label" text-anchor="end" transform="translate(-9,18)"><text y="0.32em" transform="translate(480,27)">Мой опыт поступления по проектам на грант в топ-ВУЗы: МФТИ, МИФИ, ИТМО,</text><text y="0.32em" transform="translate(480,67)">Давайте знакомиться — я Вова, и я меняюсь ☀️</text><text y="0.32em" transform="translate(480,107)">random-coffee боты как способ знакомиться с интересными людьми</text><text y="0.32em" transform="translate(480,147)">Почему я решил стать продакт-менеджером (PM)?</text><text y="0.32em" transform="translate(480,187)">Я в Яндексе, стажёр менеджер продукта</text><text y="0.32em" transform="translate(480,227)">Фреймворк хорошего состояния и куча ссылок на комьюнити про ННО, эпатию к себе</text><text y="0.32em" transform="translate(480,267)">Как я собрал свой кейс-клуб для подготовки к интервью</text><text y="0.32em" transform="translate(480,307)">Как найти работу стажером/джуном продактом</text><text y="0.32em" transform="translate(480,347)">Продукт кемп лето 2023 это какой-то трип на 2 дня в хорошее состояние,</text><text y="0.32em" transform="translate(480,387)">📍 Самые популярные посты в этом канале:</text></g><g aria-label="x-grid" aria-hidden="true" stroke="currentColor" stroke-opacity="0.1"><line x1="480" x2="480" y1="20" y2="430"/><line x1="562.1917808219177" x2="562.1917808219177" y1="20" y2="430"/><line x1="644.3835616438356" x2="644.3835616438356" y1="20" y2="430"/><line x1="726.5753424657535" x2="726.5753424657535" y1="20" y2="430"/><line x1="808.7671232876712" x2="808.7671232876712" y1="20" y2="430"/><line x1="890.958904109589" x2="890.958904109589" y1="20" y2="430"/><line x1="973.1506849315068" x2="973.1506849315068" y1="20" y2="430"/></g><g aria-label="x-axis tick" aria-hidden="true" fill="none" stroke="currentColor"><path transform="translate(480,430)" d="M0,0L0,6"/><path transform="translate(562.1917808219177,430)" d="M0,0L0,6"/><path transform="translate(644.3835616438356,430)" d="M0,0L0,6"/><path transform="translate(726.5753424657535,430)" d="M0,0L0,6"/><path transform="translate(808.7671232876712,430)" d="M0,0L0,6"/><path transform="translate(890.958904109589,430)" d="M0,0L0,6"/><path transform="translate(973.1506849315068,430)" d="M0,0L0,6"/></g><g aria-label="x-axis tick label" font-variant="tabular-nums" transform="translate(0,9)"><text y="0.71em" transform="translate(480,430)">0k</text><text y="0.71em" transform="translate(562.1917808219177,430)">1k</text><text y="0.71em" transform="translate(644.3835616438356,430)">2k</text><text y="0.71em" transform="translate(726.5753424657535,430)">3k</text><text y="0.71em" transform="translate(808.7671232876712,430)">4k</text><text y="0.71em" transform="translate(890.958904109589,430)">5k</text><text y="0.71em" transform="translate(973.1506849315068,430)">6k</text></g><g aria-label="x-axis label" text-anchor="end" transform="translate(77,27)"><text transform="translate(1020,430)">просмотры →</text></g><g aria-label="bar" fill="#2563eb"><rect x="480" width="540" y="27" height="36"/><rect x="480" width="514.1917808219177" y="67" height="36"/><rect x="480" width="478.109589041096" y="107" height="36"/><rect x="480" width="447.3698630136986" y="147" height="36"/><rect x="480" width="442.68493150684924" y="187" height="36"/><rect x="480" width="403.06849315068496" y="227" height="36"/><rect x="480" width="398.4657534246576" y="267" height="36"/><rect x="480" width="378.4931506849315" y="307" height="36"/><rect x="480" width="370.68493150684935" y="347" height="36"/><rect x="480" width="368.95890410958896" y="387" height="36"/></g><g aria-label="text" text-anchor="start" font-size="12" font-weight="600" transform="translate(6,18)"><text y="0.32em" transform="translate(1020,27)">6.6K</text><text y="0.32em" transform="translate(994.1917808219177,67)">6.3K</text><text y="0.32em" transform="translate(958.109589041096,107)">5.8K</text><text y="0.32em" transform="translate(927.3698630136986,147)">5.4K</text><text y="0.32em" transform="translate(922.6849315068492,187)">5.4K</text><text y="0.32em" transform="translate(883.068493150685,227)">4.9K</text><text y="0.32em" transform="translate(878.4657534246576,267)">4.8K</text><text y="0.32em" transform="translate(858.4931506849315,307)">4.6K</text><text y="0.32em" transform="translate(850.6849315068494,347)">4.5K</text><text y="0.32em" transform="translate(848.958904109589,387)">4.5K</text></g></svg>